<svg baseProfile="tiny" xmlns="http://www.w3.org/2000/svg" viewBox="0 0 25 25"><path d="M11.7.5h1.8c.5.1 1.1.1 1.6.2 2.5.5 4.6 1.8 6.4 3.6.9 1 1.6 2.1 2.1 3.3.5 1.1.8 2.3.9 3.5 0 .2 0 .4.1.6v1.6c-.1.8-.2 1.5-.4 2.3-.6 2.2-1.7 4.1-3.4 5.7-1 .9-2.1 1.6-3.3 2.2-1.1.5-2.3.8-3.6 1-.2 0-.4 0-.6.1h-1.5-.1c-1-.1-2-.3-2.9-.6-2.1-.7-3.9-1.9-5.3-3.5C1.9 18.6.9 16.4.6 14c0-.2 0-.4-.1-.5v-1.6-.1c0-.2 0-.4.1-.6.2-1.4.6-2.8 1.3-4C2.5 6 3.4 4.9 4.4 4c.9-.8 1.9-1.5 3-2 1.2-.6 2.4-.9 3.8-1.1.1-.4.3-.4.5-.4zM5.5 17.8h14.2l-5.1-5.1-.1.1c-.6.5-1.2.9-1.8 1.4-.1.1-.1.1-.2 0-.5-.4-.9-.7-1.4-1-.2-.1-.4-.3-.5-.4-1.7 1.6-3.4 3.3-5.1 5zm0-10.6c.3.2.5.4.8.6 2 1.6 4.1 3.1 6.1 4.7.1.1.1.1.2 0 2.3-1.8 4.6-3.5 6.8-5.2 0 0 .1-.1.2-.1H5.5zM19.7 16V8.7c-1.4 1.1-2.8 2.1-4.1 3.2 1.4 1.4 2.7 2.8 4.1 4.1zM9.5 11.9c-1.4-1.1-2.7-2.1-4.1-3.2V16c1.4-1.3 2.7-2.7 4.1-4.1z"/></svg>