<svg baseProfile="tiny" xmlns="http://www.w3.org/2000/svg" viewBox="0 0 110.3 110.3"><path d="M94 19.8l-27.7-16c-6.9-4-15.4-4-22.3 0l-27.7 16c-6.9 4-11.2 11.3-11.2 19.3v32c0 8 4.3 15.3 11.2 19.3l27.7 16c6.9 4 15.4 4 22.3 0l27.7-16c6.9-4 11.2-11.3 11.2-19.3v-32c-.1-7.9-4.3-15.3-11.2-19.3zM35.2 73.9h-8.7c1.6-1 2.9-2.2 4-3.5 1.1-1.3 2-2.5 2.7-3.6.8-1.3 1.5-2.6 2-3.9.5 1.3 1.2 2.6 2 3.9.7 1.1 1.6 2.3 2.7 3.6 1.1 1.3 2.4 2.4 4 3.5h-8.7zm17.8 0L32.9 34.6h11.5L57.9 61 53 73.9zm29.5-39.3c-4.5 5.3-7.2 12.1-7.2 19.6 0 7.5 2.7 14.3 7.2 19.6H68.1V34.6h14.4z"/></svg>